# xmcd
#
# Track frame offsets:
# 150
# 12127
# 31222
# 50012
# 69417
# 86487
# 101550
# 116392
# 132710
# 146255
#
# Disc length: 2146 seconds
#
#
# Revision: 2
# Processed by: cddbd v1.5.1PL2 Copyright (c) Steve Scherf et al.
# Submitted via: FreeRIP 2.945 
#
DISCID=8008600a
DTITLE=Tanya Tucker - Can't Run From Yourself
DYEAR=1992
DGENRE=Country
TTITLE0=It's A Little Too Late
TTITLE1=Can't Run From Yourself
TTITLE2=Two Sparrows In A Hurricane
TTITLE3=Don't Let My Heart Be The Last To Know
TTITLE4=Tell Me About It
TTITLE5=I've Learned To Live
TTITLE6=What Do They Know
TTITLE7=Rainbow Rider
TTITLE8=Half The Moon
TTITLE9=Danger Ahead
EXTD=
EXTT0=
EXTT1=
EXTT2=
EXTT3=
EXTT4=
EXTT5=
EXTT6=
EXTT7=
EXTT8=
EXTT9=
PLAYORDER=
